<?xml version="1.0" encoding="UTF-8"?>
<svg id="Ebene_1" xmlns="http://www.w3.org/2000/svg" version="1.1" viewBox="0 0 160 160">
  <!-- Generator: Adobe Illustrator 30.0.0, SVG Export Plug-In . SVG Version: 2.1.1 Build 123)  -->
  <defs>
    <style>
      .st0 {
        stroke: #000;
        stroke-miterlimit: 10;
        stroke-width: 3px;
      }

      .st0, .st1 {
        fill: #1d1d1b;
      }
    </style>
  </defs>
  <path class="st1" d="M6.09,84.39c.76,2.51,2.91,3.97,6.74,3.97,4.07,0,5.51-1.42,5.51-3.31,0-1.77-1.06-2.97-6.45-3.62-7.45-.93-8.85-3.53-8.85-6.17s2.18-6.24,8.97-6.24c7.34,0,9.4,3.79,9.62,6.33h-4c-.32-1.28-1.19-3.35-5.85-3.35-3.93,0-4.76,1.69-4.76,2.9,0,1.58,1,2.52,5.85,3.17,7.97,1.07,9.45,3.53,9.45,6.67,0,3.81-2.9,6.65-9.75,6.65-6.18,0-9.78-2.61-10.51-7h4.01Z"/>
  <path class="st1" d="M24.53,69.61h4.21v-6.82h4v6.82h5.53v3.14h-5.53v11.6c0,2.43.62,3.51,2.93,3.51.61,0,1.47-.03,2.09-.18v2.93c-.96.34-2.06.39-3.28.39-4.39,0-5.73-1.96-5.73-6.13v-12.12h-4.21v-3.14Z"/>
  <path class="st1" d="M63.43,80.2c0,5.89-3.81,11.19-11.42,11.19-7.17,0-11.17-5.3-11.17-11.16s4.24-11.21,11.38-11.21,11.21,5.57,11.21,11.18ZM44.92,80.23c0,4.02,2.57,7.9,7.23,7.9s7.17-3.62,7.17-7.86-2.56-7.98-7.27-7.98-7.13,3.69-7.13,7.94Z"/>
  <path class="st1" d="M73.01,69.61v21.92c0,5.18-1.1,9.15-7.69,9.15-.24,0-.48-.01-.57-.01v-3.25h.4c2.97,0,3.88-1.71,3.88-5.01v-22.79h3.98ZM69.05,64.11v-4.79h3.94v4.79h-3.94Z"/>
  <path class="st0" d="M83.99,79.75c2.25-2.03,8.39-7.26,11.68-10.14h5.04l-9.82,8.24,10.85,12.96h-5.04l-8.75-10.69-3.98,3.17v7.52h-3.98v-31.49h3.98v20.43Z"/>
  <path class="st0" d="M125.49,80.2c0,5.89-3.81,11.19-11.42,11.19-7.17,0-11.17-5.3-11.17-11.16s4.24-11.21,11.38-11.21,11.21,5.57,11.21,11.18ZM106.98,80.23c0,4.02,2.57,7.9,7.23,7.9s7.17-3.62,7.17-7.86-2.56-7.98-7.27-7.98-7.13,3.69-7.13,7.94Z"/>
  <path class="st0" d="M149.64,73.04c-4.88,1.93-15.24,6.54-17.52,7.33v.06c1.81.58,5.38,2,17.52,7.2v4.08l-21.19-9.28v-4.35l21.19-9.36v4.33Z"/>
  <path class="st1" d="M153.51,83.64v-6.87h4.42v6.87h-4.42Z"/>
</svg>